<?xml version="1.0" encoding="UTF-8"?><svg id="logo_svg" xmlns="http://www.w3.org/2000/svg" viewBox="0 0 456.15 514.42"><defs><style>.cls-1{fill:#fdfcfc;}.cls-2{fill:#fefdfd;}.cls-3{fill:#a12b2b;}.cls-4{fill:#b14f4f;}.cls-5{fill:#c37878;}.cls-6{fill:#ca8787;}.cls-7{fill:#fefefe;}</style></defs><path class="cls-7" d="M0,126.02V0H456.15V514.42h-75.07c.04-.1,.08-.2,.11-.31,1.96-.7,4.08-1.13,5.86-2.15,4.46-2.55,7.45-6.55,9.66-11.09,5.45-11.2,6.48-22.96,4.06-35.07-1.51-7.56-4.34-14.54-9.95-20.08-3.5-3.46-7.62-5.26-12.7-5.23-21.7,.11-43.4,.05-65.1,.05h-2.39c-.31-35.01-.62-69.82-.92-104.74,1.06,0,1.82,0,2.58,0,9.11-.14,18.23,.31,27.33-.9,38.16-5.09,66.65-37.41,66.68-75.94,.04-42.77,.04-85.54-.04-128.3,0-4.06-.47-8.15-1.03-12.19-.48-3.49-1.41-6.91-2.14-10.37,30.95-1.06,53.19-26.35,52.68-55.06-.49-27.78-22.75-51.04-50.77-52.57-13.88-.76-26.38,3.23-37.11,12.11-13.64,11.3-19.97,26.06-19.83,43.27-6.21-.58-12.35-1.65-18.49-1.65-84.25-.11-168.5-.11-252.75,.01-5.69,0-11.51,.71-17.06,1.99C26.43,63.9,3.16,91.4,.38,126.01c-.13,.02-.25,.02-.38,0Z"/><path class="cls-7" d="M0,471.9v-208.37c.12,.03,.23,.04,.35,.03,.14,1.32,.26,2.64,.42,3.96,2.32,19.2,10.61,35.37,24.93,48.34,14.74,13.36,32.37,19.42,52.06,19.91,5.55,.14,11.1,.02,16.65,.02h2.18c.31,35.04,.61,69.84,.92,104.74h-2.56c-23.61,0-47.22,.06-70.82-.05-5.22-.02-9.45,1.82-12.99,5.44-7.03,7.2-9.5,16.34-10.78,25.95-.12,.05-.24,.06-.36,.02Z"/><path class="cls-1" d="M21.07,514.42H0v-31.79H.39c.13,.94,.25,1.89,.39,2.83,1.16,7.93,3.56,15.37,8.75,21.65,2.99,3.62,6.58,6.37,11.43,7,.04,.1,.08,.21,.11,.31Z"/><path class="cls-4" d="M21.07,514.42c-.03-.11-.07-.21-.11-.31,.51-.02,1.02-.07,1.53-.07,118.49,0,236.98,0,355.47,0,1.08,0,2.17,.05,3.25,.07-.03,.1-.07,.21-.11,.31H21.07Z"/><path class="cls-5" d="M.35,263.56c-.12,0-.24,0-.35-.03V126.02c.13,.02,.25,.02,.38,0,0,1.59,0,3.18,0,4.78,0,42.73,0,85.46,0,128.19,0,1.53-.02,3.05-.03,4.58Z"/><path class="cls-6" d="M.39,482.62H0v-10.72c.12,.04,.24,.03,.36-.02l.03,10.74Z"/><path class="cls-3" d="M.39,482.62l-.03-10.74c1.28-9.61,3.75-18.75,10.78-25.95,3.53-3.62,7.76-5.46,12.99-5.44,23.61,.11,47.22,.05,70.82,.05h2.56c-.31-34.91-.61-69.7-.92-104.74h-2.18c-5.55,0-11.11,.12-16.65-.02-19.69-.49-37.31-6.55-52.06-19.91-14.32-12.97-22.61-29.14-24.93-48.34-.16-1.32-.28-2.64-.42-3.96,0-1.53,.03-3.05,.03-4.58,0-42.73,0-85.46,0-128.19,0-1.59,0-3.18,0-4.78C3.16,91.4,26.43,63.9,59.78,56.2c5.55-1.28,11.36-1.98,17.06-1.99,84.25-.12,168.5-.12,252.75-.01,6.14,0,12.29,1.07,18.49,1.65-.14-17.21,6.19-31.98,19.83-43.27C378.64,3.7,391.14-.29,405.02,.47c28.02,1.53,50.28,24.79,50.77,52.57,.51,28.71-21.73,54-52.68,55.06,.73,3.46,1.66,6.88,2.14,10.37,.56,4.03,1.02,8.12,1.03,12.19,.07,42.77,.08,85.54,.04,128.3-.04,38.52-28.52,70.85-66.68,75.94-9.1,1.21-18.21,.77-27.33,.9-.76,.01-1.52,0-2.58,0,.31,34.93,.61,69.73,.92,104.74h2.39c21.7,0,43.4,.06,65.1-.05,5.08-.03,9.2,1.77,12.7,5.23,5.61,5.54,8.44,12.52,9.95,20.08,2.43,12.11,1.39,23.87-4.06,35.07-2.21,4.54-5.2,8.54-9.66,11.09-1.78,1.02-3.9,1.45-5.86,2.15-1.08-.03-2.17-.07-3.25-.07-118.49,0-236.98,0-355.47,0-.51,0-1.02,.04-1.53,.07-4.85-.63-8.44-3.39-11.43-7-5.19-6.28-7.59-13.72-8.75-21.65-.14-.94-.26-1.89-.39-2.84Zm252.36-103.4v-43.29h-98.8v43.29h98.8Zm-51.54-224.49c-7.58,20.04-22.48,32.25-41.82,40.19,19.22,7.96,34.08,20.14,41.75,40.17,3.47-9.85,9.08-17.91,16.48-24.76,7.35-6.8,15.85-11.77,25.36-15.52-19.27-7.97-34.1-20.13-41.77-40.07Z"/><path class="cls-7" d="M252.75,379.22h-98.8v-43.29h98.8v43.29Z"/><path class="cls-2" d="M201.21,154.73c7.68,19.95,22.5,32.1,41.77,40.07-9.51,3.76-18.01,8.72-25.36,15.52-7.4,6.85-13.01,14.91-16.48,24.76-7.68-20.03-22.54-32.2-41.75-40.17,19.34-7.94,34.24-20.15,41.82-40.19Z"/></svg>