<svg xmlns="http://www.w3.org/2000/svg" width="44.787" height="34.25" viewBox="0 0 44.787 34.25">
  <g id="组_1691" data-name="组 1691" transform="translate(-255.339 278.439)">
    <path id="路径_6830" data-name="路径 6830" d="M253.651-255.653c1.508-2.358,2.773-4.3,4-6.259,1.793-2.856,3.551-5.743,5.363-8.593,1.829-2.88,4.133-2.916,5.98-.024,2.684,4.2,5.273,8.468,7.934,12.685.374.588.529,1.4,1.514,1.7,1.223-6.7,2.482-13.356,3.617-20.031.243-1.431.713-2.138,2.227-1.942a15.777,15.777,0,0,0,1.983.018c2.3.006,2.352.018,1.942,2.286-1.722,9.573-3.492,19.14-5.2,28.719-.267,1.508-.909,2.684-2.411,3.07-1.669.428-2.767-.487-3.611-1.871q-5.2-8.56-10.44-17.091c-.113-.184-.267-.339-.54-.689-.428.612-.837,1.152-1.194,1.728-3.26,5.315-6.5,10.642-9.775,15.957a3.5,3.5,0,0,1-2.441,2.037c-1.847.249-3.242-.837-3.634-3-1.342-7.423-2.643-14.852-3.967-22.281q-.632-3.572-1.3-7.138c-.214-1.134-.03-1.71,1.384-1.752,4.46-.131,4.412-.19,5.22,4.406C251.341-267.88,252.463-262.067,253.651-255.653Z" transform="translate(11.715 -0.276)" fill="#4ca07a"/>
  </g>
</svg>
